<?xml version="1.0" encoding="UTF-8" standalone="no"?>
<svg width="300" height="100" viewBox="0 0 300 100" xmlns="http://www.w3.org/2000/svg">
  
  <defs>
    <linearGradient id="brandGradient" x1="0%" y1="0%" x2="100%" y2="0%">
      <stop offset="0%" style="stop-color:#ac0800;stop-opacity:1" />
      <stop offset="50%" style="stop-color:#b20700;stop-opacity:1" />
      <stop offset="100%" style="stop-color:#8f0400;stop-opacity:1" />
    </linearGradient>
  </defs>

  <path d="M41.89 67.28L41.89 16.88L49.81 16.88L49.81 38.12L59.89 16.88L67.81 16.88L58.38 35.38L67.96 67.28L59.68 67.28L52.98 44.82L49.81 51.22L49.81 67.28L41.89 67.28ZM71.70 67.28L71.70 16.88L79.62 16.88L79.62 67.28L71.70 67.28ZM85.52 67.28L85.52 16.88L95.46 16.88L103.16 47.05L103.31 47.05L103.31 16.88L110.36 16.88L110.36 67.28L102.23 67.28L92.72 30.49L92.58 30.49L92.58 67.28L85.52 67.28ZM116.27 67.28L116.27 16.88L137.87 16.88L137.87 24.08L124.19 24.08L124.19 37.40L135.06 37.40L135.06 44.60L124.19 44.60L124.19 60.08L137.87 60.08L137.87 67.28L116.27 67.28ZM142.40 67.28L142.40 16.88L153.71 16.88L158.75 52.95L158.89 52.95L163.93 16.88L175.24 16.88L175.24 67.28L167.75 67.28L167.75 29.12L167.60 29.12L161.84 67.28L155.22 67.28L149.46 29.12L149.32 29.12L149.32 67.28L142.40 67.28ZM192.59 68Q186.76 68 183.66 64.69Q180.56 61.38 180.56 55.33L180.56 55.33L180.56 28.83Q180.56 22.78 183.66 19.47Q186.76 16.16 192.59 16.16L192.59 16.16Q198.42 16.16 201.52 19.47Q204.61 22.78 204.61 28.83L204.61 28.83L204.61 55.33Q204.61 61.38 201.52 64.69Q198.42 68 192.59 68L192.59 68ZM192.59 60.80Q196.69 60.80 196.69 55.83L196.69 55.83L196.69 28.33Q196.69 23.36 192.59 23.36L192.59 23.36Q188.48 23.36 188.48 28.33L188.48 28.33L188.48 55.83Q188.48 60.80 192.59 60.80L192.59 60.80ZM209.94 67.28L209.94 16.88L221.68 16.88Q227.80 16.88 230.60 19.72Q233.41 22.57 233.41 28.47L233.41 28.47L233.41 31.57Q233.41 39.42 228.23 41.50L228.23 41.50L228.23 41.65Q231.11 42.51 232.30 45.18Q233.48 47.84 233.48 52.30L233.48 52.30L233.48 61.16Q233.48 63.32 233.63 64.65Q233.77 65.98 234.35 67.28L234.35 67.28L226.28 67.28Q225.85 66.06 225.71 64.98Q225.56 63.90 225.56 61.09L225.56 61.09L225.56 51.87Q225.56 48.42 224.45 47.05Q223.33 45.68 220.60 45.68L220.60 45.68L217.86 45.68L217.86 67.28L209.94 67.28ZM217.86 38.48L220.74 38.48Q223.12 38.48 224.30 37.26Q225.49 36.03 225.49 33.15L225.49 33.15L225.49 29.26Q225.49 26.53 224.52 25.30Q223.55 24.08 221.46 24.08L221.46 24.08L217.86 24.08L217.86 38.48ZM236.87 67.28L245.08 16.88L255.80 16.88L264.01 67.28L256.09 67.28L254.65 57.27L254.65 57.42L245.65 57.42L244.21 67.28L236.87 67.28ZM246.59 50.58L253.72 50.58L250.19 25.66L250.04 25.66L246.59 50.58Z" fill="url(#brandGradient)" />
</svg>