<?xml version="1.0" encoding="UTF-8" standalone="no"?>
<!-- Created with Inkscape (http://www.inkscape.org/) -->

<svg
   width="100"
   height="100"
   viewBox="0 0 26.458333 26.458334"
   version="1.1"
   id="svg1"
   xml:space="preserve"
   inkscape:export-filename="k-logo.svg"
   inkscape:export-xdpi="96"
   inkscape:export-ydpi="96"
   xmlns:inkscape="http://www.inkscape.org/namespaces/inkscape"
   xmlns:sodipodi="http://sodipodi.sourceforge.net/DTD/sodipodi-0.dtd"
   xmlns:xlink="http://www.w3.org/1999/xlink"
   xmlns="http://www.w3.org/2000/svg"
   xmlns:svg="http://www.w3.org/2000/svg"><sodipodi:namedview
     id="namedview1"
     pagecolor="#505050"
     bordercolor="#eeeeee"
     borderopacity="1"
     inkscape:showpageshadow="0"
     inkscape:pageopacity="0"
     inkscape:pagecheckerboard="0"
     inkscape:deskcolor="#505050"
     inkscape:document-units="mm"
     inkscape:lockguides="true"
     inkscape:export-bgcolor="#ffffff00"><inkscape:page
       x="0"
       y="0"
       width="26.458332"
       height="26.458334"
       id="page2"
       margin="0"
       bleed="0" /></sodipodi:namedview><defs
     id="defs1"><linearGradient
       id="linearGradient14"
       inkscape:collect="always"><stop
         style="stop-color:#ac0800;stop-opacity:1;"
         offset="0.09207161"
         id="stop12" /><stop
         style="stop-color:#8f0400;stop-opacity:1;"
         offset="0.36061382"
         id="stop13" /><stop
         style="stop-color:#b20700;stop-opacity:1;"
         offset="0.76598465"
         id="stop14" /></linearGradient><linearGradient
       id="swatch7"
       inkscape:swatch="solid"><stop
         style="stop-color:#592924;stop-opacity:0.14685316;"
         offset="0"
         id="stop7" /></linearGradient><linearGradient
       id="linearGradient2"
       inkscape:collect="always"><stop
         style="stop-color:#000000;stop-opacity:1;"
         offset="0"
         id="stop2" /><stop
         style="stop-color:#1a0000;stop-opacity:0.38546604;"
         offset="0.47314578"
         id="stop10" /><stop
         style="stop-color:#0d0000;stop-opacity:0.29541865;"
         offset="1"
         id="stop3" /></linearGradient><linearGradient
       inkscape:collect="always"
       xlink:href="#linearGradient2"
       id="linearGradient3"
       x1="7.6547723"
       y1="13.229166"
       x2="18.80356"
       y2="13.229166"
       gradientUnits="userSpaceOnUse" /><filter
       inkscape:collect="always"
       style="color-interpolation-filters:sRGB"
       id="filter12"
       x="-0.088177718"
       y="-0.043821985"
       width="1.1763554"
       height="1.087644"><feGaussianBlur
         inkscape:collect="always"
         stdDeviation="0.40961446"
         id="feGaussianBlur12" /></filter><linearGradient
       inkscape:collect="always"
       xlink:href="#linearGradient14"
       id="linearGradient12"
       gradientUnits="userSpaceOnUse"
       x1="7.6547723"
       y1="13.229166"
       x2="18.80356"
       y2="13.229166"
       gradientTransform="matrix(0.90978866,0,0,0.90978866,1.1933264,1.1933948)" /></defs><path
     d="m 26.433532,4.0943242 c 0,-1.85166 -2.05466,-3.69006703 -3.89124,-4.08967303 H 3.9408417 c -1.96146,0 -3.91604003,2.41651603 -3.91604003,4.32945203 V 22.057051 c 0,2.060395 2.29139003,4.396631 4.35891003,4.396631 H 22.099432 c 1.98735,0 4.3341,-2.156235 4.3341,-4.156852 z"
     style="fill:#101010;stroke:#000000;stroke-width:0;stroke-opacity:0.016692"
     id="path51"
     sodipodi:nodetypes="scsssssss" /><path
     style="opacity:0.820616;mix-blend-mode:normal;fill:url(#linearGradient3);stroke-width:0.255321;filter:url(#filter12)"
     d="m 7.6552322,24.361231 c -0.00107,-0.04633 -2.128e-4,-5.052634 0.00195,-11.124871 0.0028,-7.8884561 0.024967,-11.0658573 0.077775,-11.1294848 0.056917,-0.068594 0.4038474,-0.089066 1.5097707,-0.089066 1.1846581,0 1.4503651,0.017458 1.5187571,0.099871 0.0639,0.076984 0.08053,1.1359012 0.07258,4.6214396 -0.0066,2.9003993 0.0135,4.5362742 0.05605,4.5625972 0.128954,0.07967 0.662406,-0.814016 1.01607,-1.7022539 0.125408,-0.314983 2.202347,-4.7185712 3.068383,-6.5057156 0.333247,-0.6876751 0.487947,-0.9367625 0.618873,-0.9964167 0.260309,-0.1185978 3.030791,-0.1104762 3.130103,0.0094 0.08728,0.1051727 0.233167,-0.2028975 -2.565511,5.4169127 -2.085806,4.1883355 -2.085806,4.1883355 -1.823231,4.9314295 0.357435,1.011545 1.224767,3.329919 1.933358,5.167865 0.322299,0.835971 0.854968,2.224255 1.183709,3.085055 0.328742,0.860797 0.76691,1.988001 0.973704,2.504897 0.20679,0.516869 0.375988,1.005746 0.375988,1.086381 0,0.128054 -0.03732,0.14658 -0.294775,0.14658 -0.162123,0 -0.454098,-0.03019 -0.648827,-0.06719 -0.194729,-0.03694 -0.823701,-0.112082 -1.397713,-0.16711 -0.574011,-0.05505 -1.072633,-0.117995 -1.108051,-0.139802 -0.03544,-0.02206 -0.107295,-0.122749 -0.159721,-0.224116 -0.08641,-0.167346 -0.662445,-1.73817 -1.279348,-3.489001 -0.54014,-1.532988 -1.594232,-4.434205 -1.81013,-4.982101 -0.04027,-0.102221 -0.116696,-0.185781 -0.16987,-0.185781 -0.05752,0 -0.29364,0.403646 -0.582897,0.996423 -0.486233,0.996417 -0.486233,0.996417 -0.486233,4.387547 0,2.375661 -0.02221,3.41341 -0.07429,3.465488 -0.04087,0.04094 -0.496845,0.11772 -1.0133066,0.170804 -0.5164579,0.05301 -1.1214121,0.127405 -1.3443398,0.165185 -0.5413382,0.09167 -0.7764571,0.08717 -0.7788263,-0.01473 z"
     id="path12"
     transform="matrix(0.83658538,0,0,0.83658538,2.1618396,2.1618391)" /><path
     style="fill:url(#linearGradient12);stroke-width:0.232288"
     d="m 8.1579664,23.356967 c -9.9e-4,-0.04215 -1.9e-4,-4.596829 0.002,-10.121282 0.003,-7.1768282 0.0227,-10.0675912 0.0708,-10.1254792 0.0518,-0.06241 0.36741,-0.08103 1.37357,-0.08103 1.0777896,0 1.3195196,0.01588 1.3817396,0.09086 0.0581,0.07004 0.0733,1.03343 0.066,4.204533 -0.006,2.638751 0.0123,4.1270522 0.051,4.1510002 0.11732,0.07248 0.60265,-0.740582 0.92441,-1.5486912 0.1141,-0.286568 2.00367,-4.292903 2.79158,-5.918827 0.30319,-0.625639 0.44393,-0.852256 0.56305,-0.906529 0.23682,-0.107899 2.75738,-0.10051 2.84773,0.0086 0.0794,0.09568 0.21213,-0.184594 -2.33407,4.928246 -1.89769,3.8104992 -1.89769,3.8104992 -1.6588,4.4865592 0.32519,0.920292 1.11428,3.029522 1.75895,4.701664 0.29322,0.760557 0.77784,2.023603 1.07692,2.806749 0.29909,0.783142 0.69773,1.80866 0.88587,2.278926 0.18813,0.470242 0.34207,0.915017 0.34207,0.988377 0,0.116502 -0.034,0.133357 -0.26819,0.133357 -0.14749,0 -0.41313,-0.06382 -0.59029,-0.09748 -0.17716,-0.03361 -0.74212,-0.101971 -1.26435,-0.152034 -0.52223,-0.05009 -0.98314,-0.07099 -1.01537,-0.09083 -0.0322,-0.02007 -0.0976,-0.111675 -0.14531,-0.203899 -0.0786,-0.152249 -0.60268,-1.581367 -1.16394,-3.174254 -0.49141,-1.394694 -1.45041,-4.03419 -1.64683,-4.532659 -0.0366,-0.093 -0.10617,-0.169021 -0.15455,-0.169021 -0.0523,0 -0.26715,0.367233 -0.53031,0.906534 -0.44237,0.90653 -0.44237,0.90653 -0.44237,3.991741 0,2.16135 -0.0202,3.105482 -0.0676,3.152861 -0.0372,0.03725 -0.45202,0.107101 -0.92189,0.155397 -0.4698696,0.04823 -1.0202496,0.115911 -1.2230696,0.150284 -0.4925,0.0834 -0.70641,0.0793 -0.70857,-0.01473 z"
     id="path2"
     sodipodi:nodetypes="ccssccccccccssssssccccccscsccccc" /></svg>
